<?xml version="1.0" encoding="UTF-8"?>
<svg xmlns="http://www.w3.org/2000/svg" xmlns:xlink="http://www.w3.org/1999/xlink" width="48px" height="48px" viewBox="0 0 48 48" version="1.1">
<g id="surface7659">
<path style=" stroke:none;fill-rule:nonzero;fill:rgb(81.176471%,84.705882%,86.27451%);fill-opacity:1;" d="M 45 35 C 45 37.210938 43.210938 39 41 39 L 7 39 C 4.789062 39 3 37.210938 3 35 L 3 13 C 3 10.789062 4.789062 9 7 9 L 41 9 C 43.210938 9 45 10.789062 45 13 Z M 45 35 "/>
<path style=" stroke:none;fill-rule:nonzero;fill:rgb(24.705882%,31.764706%,70.980392%);fill-opacity:1;" d="M 10.667969 13 C 8.578125 13 7 14.324219 7 16.617188 L 7 35 L 13.484375 35 C 15.113281 35 17 33.46875 17 31.484375 L 17 13 Z M 10.667969 13 "/>
<path style=" stroke:none;fill-rule:nonzero;fill:rgb(89.803922%,22.352941%,20.784314%);fill-opacity:1;" d="M 22.667969 13 C 20.578125 13 19 14.324219 19 16.617188 L 19 35 L 25.484375 35 C 27.113281 35 29 33.46875 29 31.484375 L 29 13 Z M 22.667969 13 "/>
<path style=" stroke:none;fill-rule:nonzero;fill:rgb(21.960784%,55.686275%,23.529412%);fill-opacity:1;" d="M 34.667969 13 C 32.578125 13 31 14.324219 31 16.617188 L 31 35 L 37.484375 35 C 39.113281 35 41 33.46875 41 31.484375 L 41 13 Z M 34.667969 13 "/>
<path style=" stroke:none;fill-rule:nonzero;fill:rgb(98.039216%,98.039216%,98.039216%);fill-opacity:1;" d="M 15.804688 24.453125 C 15.804688 26.289062 13.4375 27.257812 11.703125 27.257812 C 9.820312 27.257812 8.136719 26.136719 7.777344 24.710938 L 9.054688 24.710938 C 9.203125 25.578125 10.074219 26.1875 11.039062 26.1875 C 12.109375 26.1875 12.875 25.421875 12.875 24.453125 L 12.875 21.144531 L 15.804688 21.144531 Z M 38.605469 24.039062 C 39.367188 24.039062 39.902344 23.277344 39.902344 22.519531 C 39.902344 21.757812 39.238281 21.097656 38.476562 21.097656 L 32.214844 21.097656 L 32.214844 26.949219 L 38.605469 26.949219 C 39.46875 26.949219 40.128906 26.191406 40.128906 25.429688 C 40.128906 24.671875 39.46875 24.039062 38.605469 24.039062 Z M 34.652344 21.707031 L 36.628906 21.707031 C 37.132812 21.707031 37.589844 22.160156 37.589844 22.664062 C 37.589844 23.175781 37.132812 23.632812 36.628906 23.632812 L 34.652344 23.632812 Z M 36.679688 26.34375 L 34.652344 26.34375 L 34.652344 24.414062 L 36.679688 24.414062 C 37.1875 24.414062 37.644531 24.871094 37.644531 25.378906 C 37.644531 25.886719 37.1875 26.34375 36.679688 26.34375 Z M 27.8125 22.175781 C 26.644531 21.90625 25.523438 21.75 24.964844 21.75 C 23.746094 21.75 22.785156 22.765625 22.785156 24.050781 C 22.785156 25.34375 23.746094 26.363281 24.964844 26.363281 C 25.523438 26.363281 26.644531 26.257812 27.8125 25.984375 L 27.8125 27.003906 L 22.9375 27.003906 C 21.414062 27.003906 20.144531 25.660156 20.144531 24.050781 C 20.144531 22.445312 21.414062 21.105469 22.9375 21.105469 L 27.8125 21.105469 Z M 27.8125 22.175781 "/>
</g>
</svg>
