<?xml version="1.0" encoding="UTF-8"?>
<svg xmlns="http://www.w3.org/2000/svg" xmlns:xlink="http://www.w3.org/1999/xlink" width="48px" height="48px" viewBox="0 0 48 48" version="1.1">
<g id="surface13060">
<path style=" stroke:none;fill-rule:nonzero;fill:rgb(9.803922%,46.27451%,82.352941%);fill-opacity:1;" d="M 45 35 C 45 37.210938 43.210938 39 41 39 L 7 39 C 4.789062 39 3 37.210938 3 35 L 3 13 C 3 10.789062 4.789062 9 7 9 L 41 9 C 43.210938 9 45 10.789062 45 13 Z M 45 35 "/>
<path style=" stroke:none;fill-rule:nonzero;fill:rgb(100%,100%,100%);fill-opacity:1;" d="M 22.253906 20 L 20.140625 24.683594 L 18.039062 20 L 15.34375 20 L 15.34375 26.726562 L 12.339844 20 L 10.066406 20 L 7 26.980469 L 8.816406 26.980469 L 9.484375 25.421875 L 12.917969 25.421875 L 13.601562 26.980469 L 17.066406 26.980469 L 17.066406 21.796875 L 19.363281 26.980469 L 20.925781 26.980469 L 23.277344 21.886719 L 23.277344 26.980469 L 25 26.980469 L 25 20 Z M 10.136719 23.914062 L 11.160156 21.476562 L 12.226562 23.914062 Z M 37.882812 23.414062 L 41 20.019531 L 38.78125 20.019531 L 36.789062 22.183594 L 34.859375 20 L 28 20 L 28 26.980469 L 34.636719 26.980469 L 36.726562 24.671875 L 38.765625 27 L 40.976562 27 Z M 33.726562 25.515625 L 29.71875 25.515625 L 29.71875 24.136719 L 33.554688 24.136719 L 33.554688 22.8125 L 29.71875 22.8125 L 29.71875 21.503906 L 33.949219 21.515625 L 35.644531 23.414062 Z M 33.726562 25.515625 "/>
</g>
</svg>
